<?xml version="1.0" encoding="UTF-8"?>
<svg xmlns="http://www.w3.org/2000/svg" version="1.1" viewBox="0 0 610.9 505.4">
  <defs>
    <style>
      .cls-1 {
        fill: #dce0df;
      }

      .cls-2, .cls-3 {
        fill: #9ba2a2;
      }

      .cls-4, .cls-3 {
        opacity: .5;
      }

      .cls-3 {
        isolation: isolate;
      }

      .cls-5 {
        fill: none;
        stroke: #9ba2a2;
        stroke-miterlimit: 10;
        stroke-width: 3px;
      }
    </style>
  </defs>
  <!-- Generator: Adobe Illustrator 28.6.0, SVG Export Plug-In . SVG Version: 1.2.0 Build 709)  -->
  <g>
    <g id="Layer_1">
      <g>
        <g id="Arrow_Dot">
          <circle class="cls-3" cx="492.3" cy="259.2" r="57.4" transform="translate(157.6 703.6) rotate(-80.8)"/>
          <g class="cls-4">
            <g>
              <line class="cls-5" x1="161.9" y1="259.2" x2="365.6" y2="259.2"/>
              <path class="cls-2" d="M417.2,259.2c-24.3,9-54.4,24.4-73.1,40.7l14.7-40.7-14.7-40.7c18.7,16.3,48.8,31.7,73.1,40.7Z"/>
            </g>
          </g>
        </g>
        <g id="Font">
          <g>
            <path class="cls-1" d="M132.2,73.7l-3.1,14.6-1.9.4c-6.1-3.8-11.8-6.6-17-8.3-5.2-1.7-10.6-2.5-16.4-2.5-27.8,0-41.6,17.1-41.6,51.4s3.2,28.6,9.7,36.4c6.5,7.7,16.5,11.6,30,11.6s7.2-.3,10.8-1c3.6-.6,8.3-1.9,14.1-3.6l.4-14.4-.2-18.4,14.4-1.2-.4,17.5.8,26.9c-8.3,2.6-15.7,4.4-22.1,5.6-6.4,1.2-12.6,1.7-18.6,1.7-18.3,0-32-5.2-41.2-15.5-9.1-10.4-13.7-25.3-13.7-44.9s5.2-37.2,15.5-48.3c10.4-11.1,25.1-16.6,44.3-16.6s24.9,2.9,36.1,8.6h0Z"/>
            <path class="cls-1" d="M231.2,185.6l-.2,1.9c-5.4,1.7-9.8,2.6-13.2,2.9l-2.5-1.5c-9.7-14.7-17.1-26.3-22.1-34.7l-18,.2v4.8l.4,29.9h-14.2l.6-28.8-.6-66.8,32.6-.2c10.1,0,17.9,2.4,23.3,7.1,5.4,4.7,8.2,11.6,8.2,20.5s-1.8,12.3-5.3,17.5c-3.5,5.1-8.5,9.1-14.9,12.1,7.8,11.9,16.4,23.6,25.9,35.1ZM175.4,142.4l18,.6c11.4-3.2,17.1-10.2,17.1-20.9s-1.7-9.8-5-12.7c-3.3-2.8-8.4-4.3-15.2-4.6l-14.8.2-.2,37.4h0Z"/>
            <path class="cls-1" d="M331,189h-14.4l-2.3-10.4-5-14.2-22.8-.2-20.3.2-5.2,13.4-2.7,11.1h-14.2l36.8-95.6h16.5l33.6,95.6h0ZM305.3,152.7l-15.9-45.3h-1.2l-17.5,45.3,16.9.2,17.7-.2Z"/>
            <path class="cls-1" d="M425.7,104.4c7.7,7.8,11.6,19,11.6,33.6s-4.2,29.6-12.7,38.6c-8.4,9-20.5,13.4-36.3,13.4s-9.8,0-16-.3c-6.2-.2-12.1-.4-17.6-.7l.6-28.8-.6-66.8,37.4-.8c14.6,0,25.7,3.9,33.5,11.7h.1ZM414.4,169c5.6-6.2,8.3-15.6,8.3-28.1s-2.6-21.4-7.9-27.2c-5.2-5.9-13.2-8.8-23.8-8.8s-13.6.3-22.1.8l-.4,53.5.2,18c3.7.3,7.6.5,11.7.8s7.5.4,10.2.4c10.2,0,18.1-3.1,23.7-9.3h0Z"/>
            <path class="cls-1" d="M521.7,176.7l1.2,1.2-1.3,11.1h-58.1l.6-28.8-.6-66.8h58.5l1,1.2-1.2,11.1-24.2-.8-20,.2-.2,29,19,.2,16.7-.6,1,1.3-1.2,11.3-17.7-.6-17.8.2-.2,13,.2,18.2,18.8.2,25.5-.8v.2Z"/>
            <path class="cls-1" d="M141.3,383.2l.4,36.1h-16.1l-63.7-98.4h-1l-.2,57.9.2,40.5h-13.8l.6-36.5-.4-86.5h15.9l63.5,98.4h1.3l-.2-97.7,14.4-1.2-1,87.3h.1Z"/>
            <path class="cls-1" d="M250.8,372.2v13.8c.1,10.9-3.2,19.3-9.9,25.3s-16.3,9-28.9,9-21.9-3-28.4-8.9-9.7-14.4-9.4-25.4l.2-14.6-.2-47.8h14.4l-.8,60.1c-.1,8.1,1.9,14.1,6,18.2,4.2,4.1,10.4,6.1,18.7,6.1s14.4-2,18.6-6.1c4.2-4.1,6.3-10.2,6.1-18.2l-.6-60.1h14.6l-.6,48.5h.2Z"/>
            <path class="cls-1" d="M353.6,334.6c7.7,7.8,11.6,19,11.6,33.6s-4.2,29.6-12.7,38.6c-8.4,9-20.5,13.4-36.3,13.4s-9.8,0-16-.3c-6.2-.2-12.1-.4-17.6-.7l.6-28.8-.6-66.8,37.4-.8c14.6,0,25.7,3.9,33.5,11.7h.1ZM342.3,399.2c5.6-6.2,8.3-15.6,8.3-28.1s-2.6-21.4-7.9-27.2c-5.2-5.9-13.2-8.8-23.8-8.8s-13.6.3-22.1.8l-.4,53.5.2,18c3.7.3,7.6.5,11.7.8s7.5.4,10.2.4c10.2,0,18.1-3.1,23.7-9.3h0Z"/>
            <path class="cls-1" d="M462.8,329.3l-4.8,13.8h-1.7c-4.7-3.1-9.1-5.2-13-6.4-4-1.2-8.2-1.8-12.9-1.8-10.9,0-19,3.1-24.5,9.2-5.4,6.1-8.2,15.7-8.2,28.8s2.5,21.6,7.5,27.2,12.9,8.3,23.8,8.3,6.3-.3,9.2-.9c2.9-.6,6.5-1.6,10.7-3.2v-9.6l-.2-13.6,13.2-1v34.5c-12.9,3.8-24.1,5.8-33.6,5.8-15.1,0-26.5-4.1-34.2-12.2s-11.6-19.7-11.6-34.8,4.4-28.9,13.1-37.6c8.8-8.7,21.1-13,36.9-13s20,2.2,30.1,6.5h.2Z"/>
            <path class="cls-1" d="M550.5,407l1.2,1.2-1.3,11.1h-58.1l.6-28.8-.6-66.8h58.5l1,1.2-1.2,11.1-24.2-.8-20,.2-.2,29,19,.2,16.7-.6,1,1.3-1.2,11.3-17.7-.6-17.8.2-.2,13,.2,18.2,18.8.2,25.5-.8v.2Z"/>
          </g>
        </g>
      </g>
    </g>
  </g>
</svg>